<?xml version="1.0" standalone="no"?>
<!DOCTYPE svg PUBLIC "-//W3C//DTD SVG 20010904//EN"
 "http://www.w3.org/TR/2001/REC-SVG-20010904/DTD/svg10.dtd">
<svg version="1.0" xmlns="http://www.w3.org/2000/svg"
 width="200.000000pt" height="200.000000pt" viewBox="0 0 200.000000 200.000000"
 preserveAspectRatio="xMidYMid meet">

<g transform="translate(0.000000,200.000000) scale(0.100000,-0.100000)"
fill="#000000" stroke="none">
<path d="M860 1761 c-96 -31 -163 -72 -230 -140 -116 -117 -166 -247 -157
-406 6 -107 24 -170 71 -248 42 -69 60 -71 -179 23 l-170 68 -3 -256 c-1 -141
1 -259 5 -262 5 -4 187 -78 406 -165 l397 -159 398 159 c218 87 400 161 405
165 4 3 6 121 5 262 l-3 255 -175 -68 c-96 -38 -176 -69 -177 -69 -1 0 13 28
32 63 45 82 65 163 65 262 0 154 -47 263 -159 375 -117 116 -223 160 -386 159
-58 0 -110 -6 -145 -18z m201 -21 c99 -39 239 -154 239 -196 0 -28 -38 -131
-51 -140 -5 -3 -19 7 -31 23 -70 93 -234 219 -338 259 -25 9 -49 20 -53 24
-14 12 88 42 165 49 10 0 40 -8 69 -19z m183 -42 c54 -27 182 -135 172 -145
-12 -13 -91 22 -117 51 -16 19 -55 53 -86 77 -32 23 -62 47 -68 52 -17 15 35
-3 99 -35z m183 -184 c51 -22 58 -48 33 -125 -62 -185 -243 -380 -452 -485
l-67 -34 -16 52 c-8 28 -15 75 -15 103 l0 52 51 27 c179 98 316 247 360 394
12 41 14 42 42 36 16 -3 45 -13 64 -20z m-710 -49 c50 -23 122 -63 160 -87 79
-52 193 -145 193 -159 0 -10 -146 -109 -161 -109 -4 0 -37 22 -73 49 -79 60
-168 110 -260 147 -68 27 -68 27 -63 60 3 19 18 61 33 94 32 72 29 72 171 5z
m-184 -172 c2 -5 -4 -33 -14 -63 l-18 -55 0 63 c-1 48 2 62 13 62 8 0 17 -3
19 -7z m289 -159 l55 -43 6 -78 c6 -93 36 -177 84 -240 l35 -46 -56 7 c-189
22 -246 102 -254 355 l-4 133 40 -22 c21 -12 64 -42 94 -66z m610 -186 c-77
-112 -218 -199 -344 -213 l-53 -6 52 20 c129 48 270 136 334 208 18 22 36 38
37 37 2 -1 -10 -22 -26 -46z m-983 -37 c126 -47 207 -83 252 -114 197 -132
455 -127 639 14 30 23 107 58 225 102 99 37 184 67 188 67 4 0 6 -95 5 -212
l-3 -211 -370 -139 c-203 -76 -375 -138 -380 -138 -6 0 -177 62 -380 138
l-370 138 -3 212 c-1 117 1 212 4 212 4 0 91 -31 193 -69z"/>
<path d="M735 609 c-11 -32 -25 -112 -21 -117 5 -4 10 7 21 45 2 6 14 9 27 7
l23 -5 -23 12 c-29 16 -25 41 8 50 14 4 20 7 13 8 -6 1 -18 4 -27 7 -9 3 -18
0 -21 -7z"/>
<path d="M1142 598 c-10 -14 -10 -33 3 -85 10 -44 22 -42 17 2 -3 21 0 35 7
35 6 0 11 4 11 10 0 5 -7 7 -15 4 -9 -4 -15 0 -15 10 0 9 5 16 10 16 6 0 10 5
10 10 0 14 -16 13 -28 -2z"/>
<path d="M958 584 c-5 -4 -8 -34 -8 -68 0 -42 3 -57 11 -49 5 5 9 36 7 67 -2
32 -6 54 -10 50z"/>
<path d="M1048 573 c-4 -15 -14 -23 -27 -23 -27 0 -33 -16 -23 -55 9 -32 42
-46 58 -23 5 7 7 38 4 68 -4 39 -7 49 -12 33z m2 -62 c0 -16 -6 -31 -14 -34
-19 -8 -26 1 -26 35 0 21 5 28 20 28 15 0 20 -7 20 -29z"/>
<path d="M1256 563 c10 -44 10 -47 -9 -51 -13 -2 -19 5 -23 27 -4 17 -11 34
-16 37 -12 8 0 -55 13 -72 5 -6 21 -9 37 -7 l27 5 -25 -22 -25 -21 25 7 c14 3
27 8 29 10 7 7 -22 114 -31 114 -5 0 -5 -12 -2 -27z"/>
<path d="M815 544 c-13 -59 -13 -64 -5 -64 10 0 25 79 16 87 -3 3 -8 -8 -11
-23z"/>
<path d="M860 534 c-15 -39 -12 -54 13 -63 28 -11 47 -4 47 17 0 12 -3 13 -12
4 -7 -7 -19 -12 -27 -12 -11 1 -6 9 13 24 19 16 27 30 23 40 -10 26 -46 19
-57 -10z m50 1 c0 -2 -9 -9 -20 -15 -16 -9 -20 -8 -20 5 0 8 9 15 20 15 11 0
20 -2 20 -5z"/>
<path d="M1096 518 c7 -43 11 -55 17 -47 8 9 -6 89 -14 89 -5 0 -6 -19 -3 -42z"/>
</g>
</svg>
